<?xml version="1.0" encoding="UTF-8"?><svg id="a" xmlns="http://www.w3.org/2000/svg" viewBox="0 0 1343.63 352"><defs><style>.b{fill:#fff;}.c{fill:#2f5ccc;}</style></defs><polygon class="b" points="1343.63 352 113.366 352 0 0 1230.264 0 1343.63 352"/><g><g><path class="c" d="M221.929,312.924c-2.608,0-4.678-.766-6.214-2.309-1.543-1.537-2.309-3.49-2.309-5.859V98.427h-67.474c-2.37,0-4.323-.766-5.86-2.308-1.542-1.537-2.308-3.49-2.308-5.86v-17.401c0-2.602,.766-4.672,2.308-6.214s3.49-2.309,5.86-2.309h172.947c2.603,0,4.672,.771,6.215,2.309,1.537,1.542,2.308,3.612,2.308,6.214v17.401c0,2.37-.771,4.323-2.308,5.86s-3.612,2.308-6.215,2.308h-67.119v206.33c0,2.369-.771,4.322-2.309,5.859-1.542,1.543-3.612,2.309-6.214,2.309h-21.308Z"/><path class="c" d="M438.912,316.476c-18.233,0-33.504-3.436-45.812-10.299-12.313-6.864-21.663-16.392-28.055-28.588-6.393-12.191-9.944-26.103-10.654-41.728-.238-4.023-.355-9.173-.355-15.448s.117-11.304,.355-15.093c.71-15.859,4.378-29.831,11.009-41.905,6.625-12.075,16.036-21.541,28.233-28.411,12.19-6.864,27.283-10.298,45.278-10.298,17.757,0,32.788,3.435,45.102,10.298,12.308,6.87,21.779,16.336,28.41,28.411,6.625,12.074,10.177,26.046,10.654,41.905,.472,3.789,.71,8.822,.71,15.093s-.238,11.425-.71,15.448c-.478,15.625-3.968,29.536-10.477,41.728-6.515,12.196-15.926,21.724-28.232,28.588-12.313,6.863-27.468,10.299-45.457,10.299Zm0-29.121c14.205,0,25.509-4.494,33.915-13.495,8.401-8.994,12.962-22.251,13.673-39.774,.232-3.551,.354-8.046,.354-13.494s-.122-9.944-.354-13.495c-.711-17.518-5.271-30.774-13.673-39.774-8.406-8.995-19.71-13.495-33.915-13.495-14.443,0-25.868,4.5-34.27,13.495-8.406,9-12.846,22.257-13.317,39.774-.238,3.551-.355,8.052-.355,13.495s.117,9.943,.355,13.494c.472,17.523,4.911,30.78,13.317,39.774,8.401,9.001,19.826,13.495,34.27,13.495Z"/><path class="c" d="M642.4,316.476c-16.813,0-31.374-3.258-43.681-9.767-12.313-6.509-21.841-15.858-28.588-28.055-6.748-12.191-10.36-26.812-10.832-43.858-.238-3.552-.354-8.285-.354-14.205s.116-10.654,.354-14.205c.472-17.047,4.084-31.662,10.832-43.859,6.747-12.191,16.274-21.541,28.588-28.055,12.307-6.509,26.867-9.766,43.681-9.766,13.966,0,25.979,1.953,36.045,5.859,10.061,3.906,18.345,8.878,24.859,14.916,6.509,6.037,11.364,12.49,14.561,19.354,3.195,6.87,4.91,13.261,5.149,19.177,.232,2.369-.478,4.322-2.131,5.859-1.659,1.542-3.674,2.309-6.037,2.309h-19.888c-2.369,0-4.145-.533-5.327-1.599-1.188-1.065-2.369-3.019-3.551-5.859-4.262-11.125-9.889-18.938-16.869-23.438-6.985-4.495-15.687-6.748-26.102-6.748-13.733,0-24.859,4.262-33.382,12.785-8.523,8.523-13.14,22.14-13.851,40.84-.238,8.762-.238,17.046,0,24.858,.711,18.944,5.327,32.617,13.851,41.018,8.522,8.406,19.648,12.607,33.382,12.607,10.415,0,19.177-2.247,26.279-6.748,7.103-4.494,12.663-12.307,16.691-23.438,1.182-2.841,2.363-4.794,3.551-5.859,1.183-1.065,2.958-1.598,5.327-1.598h19.888c2.363,0,4.378,.771,6.037,2.308,1.653,1.543,2.363,3.496,2.131,5.86-.239,4.738-1.305,9.766-3.196,15.093-1.898,5.327-4.917,10.599-9.056,15.803-4.146,5.211-9.355,9.944-15.626,14.205-6.276,4.262-13.795,7.696-22.551,10.299-8.762,2.603-18.822,3.907-30.186,3.907Z"/><path class="c" d="M773.086,312.924c-2.607,0-4.678-.766-6.215-2.309-1.542-1.537-2.308-3.49-2.308-5.859V68.951c0-2.364,.766-4.317,2.308-5.86,1.537-1.537,3.607-2.308,6.215-2.308h18.822c2.363,0,4.316,.771,5.859,2.308,1.537,1.543,2.309,3.496,2.309,5.86v123.23l68.185-57.886c2.603-2.131,4.733-3.668,6.392-4.617,1.654-.943,4.14-1.42,7.458-1.42h21.663c2.363,0,4.2,.71,5.504,2.13,1.299,1.421,1.954,3.196,1.954,5.327,0,.949-.239,2.014-.711,3.196-.477,1.188-1.542,2.369-3.196,3.551l-80.259,68.184,89.138,88.428c2.603,2.369,3.906,4.5,3.906,6.392,0,2.131-.71,3.906-2.131,5.327s-3.196,2.131-5.327,2.131h-21.663c-3.551,0-6.098-.41-7.635-1.243-1.543-.826-3.612-2.425-6.215-4.794l-77.062-74.933v72.802c0,2.369-.771,4.322-2.309,5.859s-3.496,2.309-5.859,2.309h-18.822Z"/><path class="c" d="M1024.87,316.476c-24.858,0-44.568-7.514-59.129-22.551-14.56-15.032-22.55-35.808-23.971-62.325-.238-2.841-.355-6.57-.355-11.187s.117-8.346,.355-11.187c.943-17.046,4.85-31.962,11.719-44.747,6.864-12.784,16.336-22.606,28.411-29.476,12.074-6.864,26.396-10.298,42.97-10.298,17.99,0,33.205,3.851,45.635,11.542,12.429,7.696,21.896,18.528,28.41,32.494,6.509,13.972,9.766,30.186,9.766,48.653v6.747c0,2.369-.832,4.322-2.485,5.859-1.659,1.543-3.674,2.309-6.038,2.309h-121.809v3.196c.472,9.233,2.541,17.879,6.215,25.925,3.668,8.051,8.934,14.621,15.803,19.709,6.864,5.094,15.032,7.636,24.504,7.636,8.046,0,14.794-1.243,20.242-3.729,5.444-2.485,9.822-5.266,13.141-8.345,3.312-3.074,5.56-5.444,6.747-7.103,2.131-2.842,3.846-4.556,5.149-5.149,1.298-.589,3.252-.889,5.859-.889h19.888c2.131,0,3.962,.655,5.504,1.954,1.537,1.304,2.187,3.019,1.953,5.148-.238,3.552-2.131,7.936-5.682,13.141-3.552,5.21-8.646,10.298-15.271,15.271-6.631,4.972-14.799,9.116-24.504,12.429-9.711,3.313-20.72,4.973-33.027,4.973Zm-46.521-109.735h93.398v-1.065c0-10.415-1.836-19.648-5.504-27.7-3.674-8.045-9.056-14.382-16.158-18.999s-15.51-6.925-25.215-6.925-18.056,2.308-25.036,6.925c-6.986,4.617-12.313,10.954-15.98,18.999-3.674,8.052-5.505,17.285-5.505,27.7v1.065Z"/><path class="c" d="M1224.807,312.924c-13.495,0-24.504-2.541-33.027-7.636-8.523-5.088-14.799-12.368-18.821-21.84-4.029-9.467-6.037-20.714-6.037-33.737v-91.268h-27.7c-2.37,0-4.323-.766-5.86-2.308-1.542-1.537-2.308-3.49-2.308-5.86v-13.85c0-2.364,.766-4.317,2.308-5.859,1.537-1.537,3.49-2.308,5.86-2.308h27.7v-59.307c0-2.364,.766-4.317,2.308-5.86,1.537-1.537,3.49-2.308,5.859-2.308h19.178c2.363,0,4.316,.771,5.859,2.308,1.537,1.543,2.309,3.496,2.309,5.86v59.307h44.391c2.364,0,4.317,.771,5.859,2.308,1.537,1.542,2.309,3.496,2.309,5.859v13.85c0,2.37-.771,4.323-2.309,5.86-1.542,1.542-3.495,2.308-5.859,2.308h-44.391v88.427c0,10.893,1.892,19.477,5.682,25.747,3.784,6.275,10.415,9.41,19.888,9.41h22.018c2.364,0,4.317,.771,5.859,2.309,1.537,1.543,2.309,3.496,2.309,5.859v14.561c0,2.369-.771,4.322-2.309,5.859-1.542,1.543-3.495,2.309-5.859,2.309h-25.214Z"/></g><g><polygon class="c" points="145.113 56.679 115.899 35.524 93.736 35.524 93.736 128.204 115.899 128.204 145.202 106.96 145.113 56.679"/><rect class="c" x="53.441" y="55.672" width="80.591" height="16.118" rx="4" ry="4"/><rect class="c" x="53.441" y="91.938" width="80.591" height="16.118" rx="4" ry="4"/></g><g><polygon class="c" points="318.525 107.049 347.739 128.204 369.901 128.204 369.901 35.524 347.739 35.524 318.436 56.768 318.525 107.049"/><rect class="c" x="329.606" y="91.938" width="80.591" height="16.118" rx="4" ry="4" transform="translate(739.803 199.994) rotate(180)"/><rect class="c" x="329.606" y="55.672" width="80.591" height="16.118" rx="4" ry="4" transform="translate(739.803 127.462) rotate(180)"/></g><polygon class="c" points="207.057 261.704 185.902 290.919 185.902 313.081 278.581 313.081 278.581 290.919 257.337 261.616 207.057 261.704"/></g></svg>